<svg width="32" height="32" viewBox="0 0 32 32" fill="none" xmlns="http://www.w3.org/2000/svg">
<path d="M29.7076 8.29208L23.7076 2.29208C23.6147 2.19917 23.5044 2.12547 23.383 2.07519C23.2616 2.0249 23.1315 1.99902 23.0001 1.99902C22.8687 1.99902 22.7386 2.0249 22.6172 2.07519C22.4958 2.12547 22.3855 2.19917 22.2926 2.29208C22.1997 2.38499 22.126 2.49529 22.0757 2.61668C22.0254 2.73808 21.9995 2.86818 21.9995 2.99958C21.9995 3.13097 22.0254 3.26108 22.0757 3.38248C22.126 3.50387 22.1997 3.61417 22.2926 3.70708L24.5863 5.99958L21.0001 9.58583L16.7076 5.29208C16.5199 5.10444 16.2654 4.99902 16.0001 4.99902C15.7347 4.99902 15.4802 5.10444 15.2926 5.29208C15.1049 5.47972 14.9995 5.73422 14.9995 5.99958C14.9995 6.26494 15.1049 6.51944 15.2926 6.70708L16.0863 7.49958L5.58632 17.9996C5.39979 18.1846 5.25191 18.4049 5.15127 18.6476C5.05062 18.8903 4.99923 19.1506 5.00007 19.4133V25.5858L2.29257 28.2921C2.19966 28.385 2.12596 28.4953 2.07567 28.6167C2.02539 28.7381 1.99951 28.8682 1.99951 28.9996C1.99951 29.131 2.02539 29.2611 2.07567 29.3825C2.12596 29.5039 2.19966 29.6142 2.29257 29.7071C2.48021 29.8947 2.7347 30.0001 3.00007 30.0001C3.13146 30.0001 3.26157 29.9743 3.38296 29.924C3.50436 29.8737 3.61466 29.8 3.70757 29.7071L6.41382 26.9996H12.5863C12.8491 27.0004 13.1093 26.949 13.352 26.8484C13.5947 26.7477 13.815 26.5999 14.0001 26.4133L24.5001 15.9133L25.2926 16.7071C25.3855 16.8 25.4958 16.8737 25.6172 16.924C25.7386 16.9743 25.8687 17.0001 26.0001 17.0001C26.1315 17.0001 26.2616 16.9743 26.383 16.924C26.5044 16.8737 26.6147 16.8 26.7076 16.7071C26.8005 16.6142 26.8742 16.5039 26.9245 16.3825C26.9747 16.2611 27.0006 16.131 27.0006 15.9996C27.0006 15.8682 26.9747 15.7381 26.9245 15.6167C26.8742 15.4953 26.8005 15.385 26.7076 15.2921L22.4138 10.9996L26.0001 7.41333L28.2926 9.70708C28.4802 9.89472 28.7347 10.0001 29.0001 10.0001C29.2654 10.0001 29.5199 9.89472 29.7076 9.70708C29.8952 9.51944 30.0006 9.26494 30.0006 8.99958C30.0006 8.73422 29.8952 8.47972 29.7076 8.29208ZM12.5863 24.9996H7.00007V19.4133L9.25007 17.1633L11.7926 19.7071C11.8855 19.8 11.9958 19.8737 12.1172 19.924C12.2386 19.9743 12.3687 20.0001 12.5001 20.0001C12.6315 20.0001 12.7616 19.9743 12.883 19.924C13.0044 19.8737 13.1147 19.8 13.2076 19.7071C13.3005 19.6142 13.3742 19.5039 13.4245 19.3825C13.4747 19.2611 13.5006 19.131 13.5006 18.9996C13.5006 18.8682 13.4747 18.7381 13.4245 18.6167C13.3742 18.4953 13.3005 18.385 13.2076 18.2921L10.6638 15.7496L12.2501 14.1633L14.7926 16.7071C14.9802 16.8947 15.2347 17.0001 15.5001 17.0001C15.7654 17.0001 16.0199 16.8947 16.2076 16.7071C16.3952 16.5194 16.5006 16.2649 16.5006 15.9996C16.5006 15.7342 16.3952 15.4797 16.2076 15.2921L13.6638 12.7496L17.5001 8.91333L23.0863 14.4996L12.5863 24.9996Z" fill="#212E53"/>
<path d="M23.7076 2.29208L29.7076 8.29208C29.8952 8.47972 30.0006 8.73422 30.0006 8.99958C30.0006 9.26494 29.8952 9.51944 29.7076 9.70708C29.5199 9.89472 29.2654 10.0001 29.0001 10.0001C28.7347 10.0001 28.4802 9.89472 28.2926 9.70708L26.0001 7.41333L22.4138 10.9996L21.0001 9.58583L24.5863 5.99958L22.2926 3.70708C22.1997 3.61417 22.126 3.50387 22.0757 3.38248C22.0254 3.26108 21.9995 3.13097 21.9995 2.99958C21.9995 2.86818 22.0254 2.73808 22.0757 2.61668C22.126 2.49529 22.1997 2.38499 22.2926 2.29208C22.3855 2.19917 22.4958 2.12547 22.6172 2.07519C22.7386 2.0249 22.8687 1.99902 23.0001 1.99902C23.1315 1.99902 23.2616 2.0249 23.383 2.07519C23.5044 2.12547 23.6147 2.19917 23.7076 2.29208Z" fill="#4DB581"/>
<path d="M2.29257 28.2921L5.00007 25.5858L6.41382 26.9996L3.70757 29.7071C3.61466 29.8 3.50436 29.8737 3.38296 29.924C3.26157 29.9743 3.13146 30.0001 3.00007 30.0001C2.7347 30.0001 2.48021 29.8947 2.29257 29.7071C2.19966 29.6142 2.12596 29.5039 2.07567 29.3825C2.02539 29.2611 1.99951 29.131 1.99951 28.9996C1.99951 28.8682 2.02539 28.7381 2.07567 28.6167C2.12596 28.4953 2.19966 28.385 2.29257 28.2921Z" fill="#4DB581"/>
</svg>
