<svg width="33" height="32" viewBox="0 0 33 32" fill="none" xmlns="http://www.w3.org/2000/svg">
<path d="M16.5 27C14.3244 27 12.1977 26.3549 10.3887 25.1462C8.57979 23.9375 7.16989 22.2195 6.33733 20.2095C5.50477 18.1995 5.28693 15.9878 5.71137 13.854C6.13581 11.7202 7.18345 9.76021 8.72183 8.22183C10.2602 6.68345 12.2202 5.63581 14.354 5.21137C16.4878 4.78693 18.6995 5.00477 20.7095 5.83733C22.7195 6.66989 24.4375 8.07979 25.6462 9.88873C26.8549 11.6977 27.5 13.8244 27.5 16C27.5 16.2652 27.6054 16.5196 27.7929 16.7071C27.9804 16.8946 28.2348 17 28.5 17C28.7652 17 29.0196 16.8946 29.2071 16.7071C29.3946 16.5196 29.5 16.2652 29.5 16C29.5 13.4288 28.7376 10.9154 27.3091 8.77759C25.8807 6.63975 23.8503 4.97351 21.4749 3.98957C19.0995 3.00563 16.4856 2.74819 13.9638 3.2498C11.4421 3.75141 9.1257 4.98953 7.30762 6.80762C5.48953 8.6257 4.25141 10.9421 3.7498 13.4638C3.24819 15.9856 3.50563 18.5995 4.48957 20.9749C5.47351 23.3503 7.13975 25.3807 9.27759 26.8091C11.4154 28.2376 13.9288 29 16.5 29C16.7652 29 17.0196 28.8946 17.2071 28.7071C17.3946 28.5196 17.5 28.2652 17.5 28C17.5 27.7348 17.3946 27.4804 17.2071 27.2929C17.0196 27.1054 16.7652 27 16.5 27Z" fill="#212E53"/>
<path d="M17.5 14.3813V9C17.5 8.73478 17.3946 8.48043 17.2071 8.29289C17.0196 8.10536 16.7652 8 16.5 8C16.2348 8 15.9804 8.10536 15.7929 8.29289C15.6054 8.48043 15.5 8.73478 15.5 9V16C15.5001 16.1704 15.5437 16.338 15.6268 16.4869C15.7099 16.6357 15.8296 16.7608 15.9746 16.8503C16.1197 16.9399 16.2852 16.9909 16.4554 16.9985C16.6257 17.0061 16.7951 16.97 16.9475 16.8937L22.9475 13.8938C23.1847 13.7751 23.365 13.567 23.4488 13.3154C23.5327 13.0637 23.5131 12.7891 23.3944 12.5519C23.2757 12.3147 23.0676 12.1343 22.816 12.0505C22.5643 11.9667 22.2897 11.9863 22.0525 12.105L17.5 14.3813Z" fill="#4DB581"/>
<path d="M19.5001 26.4503C19.4957 25.7752 19.7576 25.1257 20.2288 24.6423L22.4017 22.4697L22.9466 23.0146L25.4861 25.5535L26.0313 26.0988L23.8583 28.2713C23.375 28.7425 22.7255 29.0044 22.0504 29.0002C21.3754 28.996 20.7292 28.726 20.2518 28.2487C19.7745 27.7714 19.5044 27.1253 19.5001 26.4503Z" fill="#212E53"/>
<path d="M26.9347 19C27.6154 19 28.2682 19.2704 28.7495 19.7517C29.2301 20.2332 29.5001 20.8857 29.5002 21.566C29.5003 22.2463 29.2305 22.8989 28.75 23.3806L26.0314 26.0985L25.4862 25.5533L22.9467 23.0143L22.4019 22.4695L25.12 19.7517C25.6013 19.2704 26.2541 19 26.9347 19Z" fill="#4DB581"/>
</svg>
