<svg width="33" height="32" viewBox="0 0 33 32" fill="none" xmlns="http://www.w3.org/2000/svg">
<path d="M11.5 10V8.144C11.5 6.63067 12.6267 5.34667 14.1347 5.22133C14.632 5.18133 15.132 5.14533 15.632 5.11467M21.5 24H24.5C25.2957 24 26.0587 23.6839 26.6213 23.1213C27.1839 22.5587 27.5 21.7957 27.5 21V8.144C27.5 6.63067 26.3733 5.34667 24.8653 5.22133C24.3667 5.17998 23.8675 5.14442 23.368 5.11467M23.368 5.11467C23.1786 4.50226 22.7968 3.96658 22.281 3.58605C21.7651 3.20553 21.141 3.00015 20.5 3H18.5C17.859 3.00015 17.2349 3.20553 16.719 3.58605C16.2032 3.96658 15.8227 4.50226 15.6333 5.11467C15.5467 5.39467 15.5 5.692 15.5 6V7H23.5V6C23.5 5.692 23.4547 5.39467 23.368 5.11467ZM21.5 25V22.5C21.5 21.3065 21.0259 20.1619 20.182 19.318C19.3381 18.4741 18.1935 18 17 18H15C14.6022 18 14.2206 17.842 13.9393 17.5607C13.658 17.2794 13.5 16.8978 13.5 16.5V14.5C13.5 13.3065 13.0259 12.1619 12.182 11.318C11.3381 10.4741 10.1935 10 9 10H7.5M9.5 10H7C6.172 10 5.5 10.672 5.5 11.5V27.5C5.5 28.328 6.172 29 7 29H20C20.828 29 21.5 28.328 21.5 27.5V22C21.5 18.8174 20.2357 15.7652 17.9853 13.5147C15.7348 11.2643 12.6826 10 9.5 10Z" stroke="#212E53" stroke-width="1.5" stroke-linecap="round" stroke-linejoin="round"/>
<path d="M21.5 25V22.5C21.5 21.3065 21.0259 20.1619 20.182 19.318C19.3381 18.4741 18.1935 18 17 18H15C14.6022 18 14.2206 17.842 13.9393 17.5607C13.658 17.2794 13.5 16.8978 13.5 16.5V14.5C13.5 13.3065 13.0259 12.1619 12.182 11.318C11.3381 10.4741 10.1935 10 9 10H7.5M9.5 10H7C6.172 10 5.5 10.672 5.5 11.5V27.5C5.5 28.328 6.172 29 7 29H20C20.828 29 21.5 28.328 21.5 27.5V22C21.5 18.8174 20.2357 15.7652 17.9853 13.5147C15.7348 11.2643 12.6826 10 9.5 10Z" stroke="#4DB581" stroke-width="1.5" stroke-linecap="round" stroke-linejoin="round"/>
</svg>
