<svg width="32" height="32" viewBox="0 0 32 32" fill="none" xmlns="http://www.w3.org/2000/svg">
<path d="M29.7071 8.29257L23.7071 2.29257C23.6142 2.19966 23.5039 2.12596 23.3825 2.07567C23.2611 2.02539 23.131 1.99951 22.9996 1.99951C22.8682 1.99951 22.7381 2.02539 22.6167 2.07567C22.4953 2.12596 22.385 2.19966 22.2921 2.29257C22.1992 2.38548 22.1255 2.49578 22.0752 2.61717C22.0249 2.73856 21.999 2.86867 21.999 3.00007C21.999 3.13146 22.0249 3.26157 22.0752 3.38296C22.1255 3.50436 22.1992 3.61466 22.2921 3.70757L24.5858 6.00007L20.9996 9.58632L16.7071 5.29257C16.5194 5.10493 16.2649 4.99951 15.9996 4.99951C15.7342 4.99951 15.4797 5.10493 15.2921 5.29257C15.1044 5.48021 14.999 5.7347 14.999 6.00007C14.999 6.26543 15.1044 6.51993 15.2921 6.70757L16.0858 7.50007L5.58583 18.0001C5.3993 18.1851 5.25142 18.4054 5.15078 18.6481C5.05014 18.8908 4.99874 19.1511 4.99958 19.4138V25.5863L2.29208 28.2926C2.19917 28.3855 2.12547 28.4958 2.07519 28.6172C2.0249 28.7386 1.99902 28.8687 1.99902 29.0001C1.99902 29.1315 2.0249 29.2616 2.07519 29.383C2.12547 29.5044 2.19917 29.6147 2.29208 29.7076C2.47972 29.8952 2.73422 30.0006 2.99958 30.0006C3.13097 30.0006 3.26108 29.9747 3.38248 29.9245C3.50387 29.8742 3.61417 29.8005 3.70708 29.7076L6.41333 27.0001H12.5858C12.8486 27.0009 13.1089 26.9495 13.3516 26.8489C13.5943 26.7482 13.8145 26.6003 13.9996 26.4138L24.4996 15.9138L25.2921 16.7076C25.385 16.8005 25.4953 16.8742 25.6167 16.9245C25.7381 16.9747 25.8682 17.0006 25.9996 17.0006C26.131 17.0006 26.2611 16.9747 26.3825 16.9245C26.5039 16.8742 26.6142 16.8005 26.7071 16.7076C26.8 16.6147 26.8737 16.5044 26.924 16.383C26.9743 16.2616 27.0001 16.1315 27.0001 16.0001C27.0001 15.8687 26.9743 15.7386 26.924 15.6172C26.8737 15.4958 26.8 15.3855 26.7071 15.2926L22.4133 11.0001L25.9996 7.41382L28.2921 9.70757C28.4797 9.89521 28.7342 10.0006 28.9996 10.0006C29.2649 10.0006 29.5194 9.89521 29.7071 9.70757C29.8947 9.51993 30.0001 9.26543 30.0001 9.00007C30.0001 8.7347 29.8947 8.48021 29.7071 8.29257ZM12.5858 25.0001H6.99958V19.4138L9.24958 17.1638L11.7921 19.7076C11.885 19.8005 11.9953 19.8742 12.1167 19.9245C12.2381 19.9747 12.3682 20.0006 12.4996 20.0006C12.631 20.0006 12.7611 19.9747 12.8825 19.9245C13.0039 19.8742 13.1142 19.8005 13.2071 19.7076C13.3 19.6147 13.3737 19.5044 13.424 19.383C13.4743 19.2616 13.5001 19.1315 13.5001 19.0001C13.5001 18.8687 13.4743 18.7386 13.424 18.6172C13.3737 18.4958 13.3 18.3855 13.2071 18.2926L10.6633 15.7501L12.2496 14.1638L14.7921 16.7076C14.9797 16.8952 15.2342 17.0006 15.4996 17.0006C15.7649 17.0006 16.0194 16.8952 16.2071 16.7076C16.3947 16.5199 16.5001 16.2654 16.5001 16.0001C16.5001 15.7347 16.3947 15.4802 16.2071 15.2926L13.6633 12.7501L17.4996 8.91382L23.0858 14.5001L12.5858 25.0001Z" fill="#212E53"/>
<path d="M23.7081 2.29257L29.7081 8.29257C29.8957 8.48021 30.0011 8.7347 30.0011 9.00007C30.0011 9.26543 29.8957 9.51993 29.7081 9.70757C29.5204 9.89521 29.2659 10.0006 29.0006 10.0006C28.7352 10.0006 28.4807 9.89521 28.2931 9.70757L26.0006 7.41382L22.4143 11.0001L21.0006 9.58632L24.5868 6.00007L22.2931 3.70757C22.2001 3.61466 22.1264 3.50436 22.0762 3.38296C22.0259 3.26157 22 3.13146 22 3.00007C22 2.86867 22.0259 2.73856 22.0762 2.61717C22.1264 2.49578 22.2001 2.38548 22.2931 2.29257C22.386 2.19966 22.4963 2.12596 22.6177 2.07567C22.7391 2.02539 22.8692 1.99951 23.0006 1.99951C23.132 1.99951 23.2621 2.02539 23.3835 2.07567C23.5048 2.12596 23.6151 2.19966 23.7081 2.29257Z" fill="#4DB581"/>
<path d="M2.29306 28.2926L5.00056 25.5863L6.41431 27.0001L3.70806 29.7076C3.61515 29.8005 3.50485 29.8742 3.38345 29.9245C3.26206 29.9747 3.13195 30.0006 3.00056 30.0006C2.73519 30.0006 2.4807 29.8952 2.29306 29.7076C2.20015 29.6147 2.12645 29.5044 2.07616 29.383C2.02588 29.2616 2 29.1315 2 29.0001C2 28.8687 2.02588 28.7386 2.07616 28.6172C2.12645 28.4958 2.20015 28.3855 2.29306 28.2926Z" fill="#4DB581"/>
</svg>
