<svg width="32" height="32" viewBox="0 0 32 32" fill="none" xmlns="http://www.w3.org/2000/svg">
<path d="M24.125 5.16667H20.875C20.862 5.16667 20.8512 5.17317 20.8382 5.17425C19.6476 3.84392 17.9229 3 16 3C14.0771 3 12.3535 3.84392 11.1618 5.17425C11.1488 5.17425 11.138 5.16667 11.125 5.16667H7.875C5.18725 5.16667 3 7.35392 3 10.0417V24.125C3 26.8127 5.18725 29 7.875 29H24.125C26.8127 29 29 26.8127 29 24.125V10.0417C29 7.35392 26.8127 5.16667 24.125 5.16667ZM16 4.08333C18.9867 4.08333 21.4167 6.51325 21.4167 9.5C21.4167 10.098 20.9313 10.5833 20.3333 10.5833H16.2578L17.6933 6.99317C17.8048 6.71583 17.6705 6.40058 17.3921 6.29008C17.1148 6.1785 16.7995 6.31392 16.689 6.59125L15.0922 10.5844H11.6667C11.0687 10.5844 10.5833 10.0991 10.5833 9.50108C10.5833 6.51433 13.0133 4.08442 16 4.08442V4.08333ZM27.9167 24.125C27.9167 26.2158 26.2158 27.9167 24.125 27.9167H7.875C5.78417 27.9167 4.08333 26.2158 4.08333 24.125V10.0417C4.08333 7.95083 5.78417 6.25 7.875 6.25H10.3797C9.82392 7.20767 9.5 8.31592 9.5 9.5C9.5 10.6949 10.4718 11.6667 11.6667 11.6667H20.3333C21.5283 11.6667 22.5 10.6949 22.5 9.5C22.5 8.31592 22.1761 7.20767 21.6203 6.25H24.125C26.2158 6.25 27.9167 7.95083 27.9167 10.0417V24.125Z" fill="#212E53"/>
<path d="M20.8382 5.17425C20.8512 5.17317 20.862 5.16667 20.875 5.16667H24.125C26.8128 5.16667 29 7.35392 29 10.0417V24.125C29 26.8128 26.8128 29 24.125 29H7.875C5.18725 29 3 26.8128 3 24.125V10.0417C3 7.35392 5.18725 5.16667 7.875 5.16667H11.125C11.138 5.16667 11.1488 5.17425 11.1618 5.17425M20.8382 5.17425C19.6476 3.84392 17.9229 3 16 3C14.0771 3 12.3535 3.84392 11.1618 5.17425M20.8382 5.17425C21.0452 5.43463 21.4914 6.0143 21.6203 6.25M11.1618 5.17425C10.8848 5.48349 10.5247 6 10.3797 6.25M16.2578 10.5833H20.3333C20.9313 10.5833 21.4167 10.098 21.4167 9.5C21.4167 6.51325 18.9868 4.08333 16 4.08333V4.08442C13.0132 4.08442 10.5833 6.51433 10.5833 9.50108C10.5833 10.0991 11.0687 10.5844 11.6667 10.5844H15.0922M16.2578 10.5833L17.6933 6.99317C17.8048 6.71583 17.6705 6.40058 17.3921 6.29008C17.1148 6.1785 16.7995 6.31392 16.689 6.59125L15.0922 10.5844M16.2578 10.5833L15.0922 10.5844M10.3797 6.25H7.875C5.78417 6.25 4.08333 7.95083 4.08333 10.0417V24.125C4.08333 26.2158 5.78417 27.9167 7.875 27.9167H24.125C26.2158 27.9167 27.9167 26.2158 27.9167 24.125V10.0417C27.9167 7.95083 26.2158 6.25 24.125 6.25H21.6203M10.3797 6.25C9.82392 7.20767 9.5 8.31592 9.5 9.5C9.5 10.6949 10.4718 11.6667 11.6667 11.6667H20.3333C21.5283 11.6667 22.5 10.6949 22.5 9.5C22.5 8.31592 22.1761 7.20767 21.6203 6.25" stroke="#212E53" stroke-width="0.5"/>
<path fill-rule="evenodd" clip-rule="evenodd" d="M20.8382 5.17425C19.6476 3.84392 17.9229 3 16 3C14.0771 3 12.3535 3.84392 11.1618 5.17425C10.8848 5.48349 10.5247 6 10.3797 6.25C9.82392 7.20767 9.5 8.31592 9.5 9.5C9.5 10.6949 10.4718 11.6667 11.6667 11.6667H20.3333C21.5283 11.6667 22.5 10.6949 22.5 9.5C22.5 8.31592 22.1761 7.20767 21.6203 6.25C21.4914 6.0143 21.0452 5.43463 20.8382 5.17425ZM21.4163 9.5C21.4163 6.51325 18.9864 4.08334 15.9997 4.08334C13.0129 4.08334 10.583 6.51434 10.583 9.50109C10.583 10.0991 11.0683 10.5844 11.6663 10.5844H15.0918L16.6887 6.59125C16.7992 6.31392 17.1144 6.1785 17.3918 6.29009C17.6702 6.40059 17.8045 6.71584 17.6929 6.99317L16.2575 10.5833H20.333C20.931 10.5833 21.4163 10.098 21.4163 9.5Z" fill="#4DB581"/>
<path d="M20.8382 5.17425L21.0339 5.01867L21.0293 5.01296L21.0245 5.00753L20.8382 5.17425ZM11.1618 5.17425L10.9756 5.00745L11.1618 5.17425ZM10.3797 6.25L10.5959 6.37548L10.3797 6.25ZM21.6203 6.25L21.4009 6.37001L21.4041 6.37548L21.6203 6.25ZM15.0918 10.5844V10.8344H15.2611L15.324 10.6772L15.0918 10.5844ZM16.6887 6.59125L16.9208 6.68408L16.9209 6.68379L16.6887 6.59125ZM17.3918 6.29009L17.2984 6.52202L17.2995 6.52245L17.3918 6.29009ZM17.6929 6.99317L17.461 6.89985L17.4608 6.90036L17.6929 6.99317ZM16.2575 10.5833L16.0254 10.4905L15.8883 10.8333H16.2575V10.5833ZM16 3.25C17.848 3.25 19.5061 4.0607 20.6519 5.34097L21.0245 5.00753C19.7891 3.62714 17.9979 2.75 16 2.75V3.25ZM11.348 5.34106C12.495 4.06065 14.1521 3.25 16 3.25V2.75C14.0021 2.75 12.212 3.62718 10.9756 5.00745L11.348 5.34106ZM10.5959 6.37548C10.7334 6.1385 11.0837 5.63616 11.348 5.34106L10.9756 5.00745C10.6859 5.33082 10.3161 5.8615 10.1634 6.12452L10.5959 6.37548ZM9.75 9.5C9.75 8.36222 10.0611 7.297 10.5959 6.37548L10.1634 6.12452C9.58671 7.11833 9.25 8.26962 9.25 9.5H9.75ZM11.6667 11.4167C10.6098 11.4167 9.75 10.5568 9.75 9.5H9.25C9.25 10.833 10.3337 11.9167 11.6667 11.9167V11.4167ZM20.3333 11.4167H11.6667V11.9167H20.3333V11.4167ZM22.25 9.5C22.25 10.5568 21.3902 11.4167 20.3333 11.4167V11.9167C21.6663 11.9167 22.75 10.833 22.75 9.5H22.25ZM21.4041 6.37548C21.9389 7.297 22.25 8.36222 22.25 9.5H22.75C22.75 8.26962 22.4133 7.11833 21.8366 6.12452L21.4041 6.37548ZM20.6425 5.32983C20.7446 5.45831 20.9062 5.66609 21.0578 5.87035C21.2131 6.0797 21.3462 6.26982 21.401 6.36998L21.8397 6.13002C21.7655 5.99448 21.611 5.77691 21.4593 5.5724C21.3038 5.36281 21.1387 5.15057 21.0339 5.01867L20.6425 5.32983ZM15.9997 4.33334C18.8484 4.33334 21.1663 6.65132 21.1663 9.5H21.6663C21.6663 6.37518 19.1245 3.83334 15.9997 3.83334V4.33334ZM10.833 9.50109C10.833 6.65234 13.1511 4.33334 15.9997 4.33334V3.83334C12.8748 3.83334 10.333 6.37633 10.333 9.50109H10.833ZM11.6663 10.3344C11.2064 10.3344 10.833 9.96101 10.833 9.50109H10.333C10.333 10.2372 10.9303 10.8344 11.6663 10.8344V10.3344ZM15.0918 10.3344H11.6663V10.8344H15.0918V10.3344ZM16.4565 6.49843L14.8597 10.4916L15.324 10.6772L16.9208 6.68408L16.4565 6.49843ZM17.4851 6.05815C17.0791 5.89483 16.6181 6.09302 16.4564 6.49872L16.9209 6.68379C16.9803 6.53482 17.1497 6.46218 17.2984 6.52202L17.4851 6.05815ZM17.9249 7.08649C18.088 6.68112 17.8916 6.21951 17.484 6.05772L17.2995 6.52245C17.4487 6.58166 17.5211 6.75055 17.461 6.89985L17.9249 7.08649ZM16.4896 10.6761L17.9251 7.08598L17.4608 6.90036L16.0254 10.4905L16.4896 10.6761ZM20.333 10.3333H16.2575V10.8333H20.333V10.3333ZM21.1663 9.5C21.1663 9.95993 20.7929 10.3333 20.333 10.3333V10.8333C21.0691 10.8333 21.6663 10.2361 21.6663 9.5H21.1663ZM15.0921 10.8344L16.2577 10.8333L16.2573 10.3333L15.0916 10.3344L15.0921 10.8344Z" fill="#4DB581"/>
</svg>
