<svg width="32" height="32" viewBox="0 0 32 32" fill="none" xmlns="http://www.w3.org/2000/svg">
<path d="M28 13.0002H26.9538C26.7025 10.2688 25.4398 7.72977 23.4134 5.88118C21.3869 4.0326 18.7429 3.00781 16 3.00781C13.2571 3.00781 10.6131 4.0326 8.58664 5.88118C6.5602 7.72977 5.29752 10.2688 5.04625 13.0002H4C3.73478 13.0002 3.48043 13.1055 3.29289 13.2931C3.10536 13.4806 3 13.7349 3 14.0002C3.00439 16.3783 3.65887 18.71 4.89264 20.7431C6.12641 22.7762 7.89253 24.4333 10 25.5352V26.0002C10 26.5306 10.2107 27.0393 10.5858 27.4144C10.9609 27.7894 11.4696 28.0002 12 28.0002H20C20.5304 28.0002 21.0391 27.7894 21.4142 27.4144C21.7893 27.0393 22 26.5306 22 26.0002V25.5352C24.1075 24.4333 25.8736 22.7762 27.1074 20.7431C28.3411 18.71 28.9956 16.3783 29 14.0002C29 13.7349 28.8946 13.4806 28.7071 13.2931C28.5196 13.1055 28.2652 13.0002 28 13.0002ZM24.9425 13.0002H18.515C19.7274 11.1813 21.5616 9.86705 23.6737 9.30391C24.3643 10.4272 24.7976 11.6895 24.9425 13.0002ZM21.685 7.02891C21.9142 7.21641 22.1338 7.41433 22.3438 7.62266C19.6817 8.5591 17.4819 10.4837 16.2 12.9977H12.5125C13.1375 11.2457 14.2882 9.72942 15.8073 8.65597C17.3264 7.58252 19.1399 7.00425 21 7.00016C21.2288 7.00016 21.4575 7.01141 21.685 7.02891ZM16 5.00016C16.8025 5.00069 17.6012 5.10874 18.375 5.32141C16.4905 5.78888 14.7626 6.74484 13.3653 8.09294C11.9681 9.44104 10.9509 11.1336 10.4163 13.0002H7.0575C7.30556 10.8012 8.35415 8.7705 10.0034 7.29509C11.6526 5.81968 13.7871 5.00279 16 5.00016ZM20.5825 24.0002C20.4081 24.0803 20.2604 24.209 20.1571 24.3708C20.0538 24.5326 19.9993 24.7207 20 24.9127V26.0002H12V24.9127C12.0007 24.7207 11.9462 24.5326 11.8429 24.3708C11.7396 24.209 11.5919 24.0803 11.4175 24.0002C9.6589 23.1909 8.1441 21.9333 7.02513 20.3536C5.90617 18.7739 5.22242 16.9276 5.0425 15.0002H15.9981H26.9538C26.7742 16.9273 26.091 18.7732 24.9727 20.3529C23.8544 21.9326 22.3404 23.1904 20.5825 24.0002Z" fill="#4DB581"/>
<path fill-rule="evenodd" clip-rule="evenodd" d="M28 13H4C3.73478 13 3.48043 13.1054 3.29289 13.2929C3.10536 13.4804 3 13.7348 3 14C3.00439 16.3781 3.65887 18.7098 4.89264 20.7429C6.12641 22.776 7.89253 24.4331 10 25.535V26C10 26.5304 10.2107 27.0391 10.5858 27.4142C10.9609 27.7893 11.4696 28 12 28H20C20.5304 28 21.0391 27.7893 21.4142 27.4142C21.7893 27.0391 22 26.5304 22 26V25.535C24.1075 24.4331 25.8736 22.776 27.1074 20.7429C28.3411 18.7098 28.9956 16.3781 29 14C29 13.7348 28.8946 13.4804 28.7071 13.2929C28.5196 13.1054 28.2652 13 28 13ZM20.583 24C20.4085 24.0801 20.2609 24.2088 20.1576 24.3706C20.0543 24.5324 19.9997 24.7205 20.0005 24.9125V26H12.0005V24.9125C12.0012 24.7205 11.9467 24.5324 11.8434 24.3706C11.7401 24.2088 11.5924 24.0801 11.418 24C9.65937 23.1908 8.14456 21.9332 7.0256 20.3534C5.90664 18.7737 5.22289 16.9275 5.04297 15H26.9542C26.7747 16.9271 26.0915 18.7731 24.9732 20.3528C23.8549 21.9324 22.3409 23.1902 20.583 24Z" fill="#212E53"/>
<mask id="path-3-outside-1_382_456" maskUnits="userSpaceOnUse" x="7.13397" y="2" width="17.5981" height="27.4808" fill="black">
<rect fill="white" x="7.13397" y="2" width="17.5981" height="27.4808"/>
<path d="M8 3L9.29904 2.25L24.299 28.2308L23 28.9808L8 3Z"/>
</mask>
<path d="M8 3L9.29904 2.25L24.299 28.2308L23 28.9808L8 3Z" fill="#212E53"/>
<path d="M23.6928 28.5808L8.69282 2.6L7.30718 3.4L22.3072 29.3808L23.6928 28.5808Z" fill="#FCFCFC" mask="url(#path-3-outside-1_382_456)"/>
</svg>
