<svg width="32" height="32" viewBox="0 0 32 32" fill="none" xmlns="http://www.w3.org/2000/svg">
<path d="M29 16C29 18.5712 28.2376 21.0846 26.8091 23.2224C25.3807 25.3603 23.3503 27.0265 20.9749 28.0104C18.5995 28.9944 15.9856 29.2518 13.4638 28.7502C10.9421 28.2486 8.6257 27.0105 6.80762 25.1924C4.98953 23.3743 3.75141 21.0579 3.2498 18.5362C2.74819 16.0144 3.00563 13.4006 3.98957 11.0251C4.97351 8.64968 6.63975 6.61935 8.77759 5.1909C10.9154 3.76244 13.4288 3 16 3C16.2652 3 16.5196 3.10536 16.7071 3.29289C16.8946 3.48043 17 3.73478 17 4C17 5.32608 17.5268 6.59785 18.4645 7.53553C19.4022 8.47322 20.6739 9 22 9C22.2652 9 22.5196 9.10536 22.7071 9.29289C22.8946 9.48043 23 9.73478 23 10C23 11.3261 23.5268 12.5979 24.4645 13.5355C25.4022 14.4732 26.6739 15 28 15C28.2652 15 28.5196 15.1054 28.7071 15.2929C28.8946 15.4804 29 15.7348 29 16ZM26.9613 16.9237C25.4636 16.6964 24.0797 15.9905 23.0164 14.9115C21.9532 13.8325 21.2677 12.4384 21.0625 10.9375C19.5616 10.7323 18.1675 10.0468 17.0885 8.98357C16.0095 7.92033 15.3036 6.53644 15.0763 5.03875C12.9868 5.21486 10.9912 5.98453 9.32458 7.25705C7.65797 8.52958 6.3898 10.252 5.6695 12.2212C4.94919 14.1905 4.80676 16.3246 5.25898 18.3722C5.7112 20.4197 6.73923 22.2953 8.22195 23.7781C9.70466 25.2608 11.5803 26.2888 13.6278 26.741C15.6754 27.1933 17.8095 27.0508 19.7788 26.3305C21.7481 25.6102 23.4704 24.342 24.743 22.6754C26.0155 21.0088 26.7851 19.0132 26.9613 16.9237Z" fill="#212E53"/>
<path d="M20.9706 21.2068C20.9131 20.916 20.7708 20.6487 20.5615 20.4387C20.4222 20.2989 20.2566 20.1879 20.0743 20.1122C19.8919 20.0365 19.6964 19.9975 19.499 19.9975C19.3016 19.9975 19.1061 20.0365 18.9238 20.1122C18.7415 20.1879 18.5759 20.2989 18.4365 20.4387C18.2273 20.6487 18.0849 20.916 18.0275 21.2068C17.97 21.4976 18 21.799 18.1137 22.0727C18.2274 22.3465 18.4196 22.5805 18.6662 22.7451C18.9128 22.9097 19.2026 22.9975 19.499 22.9975C19.7955 22.9975 20.0853 22.9097 20.3318 22.7451C20.5784 22.5805 20.7707 22.3465 20.8843 22.0727C20.998 21.799 21.028 21.4976 20.9706 21.2068Z" fill="#4DB581"/>
<path d="M10.0275 20.2068C10.0849 19.916 10.2273 19.6487 10.4365 19.4387H10.439C10.5783 19.2992 10.7438 19.1886 10.9259 19.1131C11.108 19.0376 11.3032 18.9988 11.5003 18.9988C11.6974 18.9988 11.8926 19.0376 12.0747 19.1131C12.2568 19.1886 12.4222 19.2992 12.5615 19.4387C12.7708 19.6487 12.9131 19.916 12.9706 20.2068C13.028 20.4976 12.998 20.799 12.8843 21.0727C12.7707 21.3465 12.5784 21.5805 12.3318 21.7451C12.0853 21.9097 11.7955 21.9975 11.499 21.9975C11.2026 21.9975 10.9128 21.9097 10.6662 21.7451C10.4197 21.5805 10.2274 21.3465 10.1137 21.0727C10 20.799 9.97001 20.4976 10.0275 20.2068Z" fill="#4DB581"/>
<path d="M11.9706 13.7956C11.9131 14.0864 11.7708 14.3537 11.5615 14.5637V14.5612C11.4223 14.7012 11.2569 14.8124 11.0746 14.8883C10.8924 14.9642 10.697 15.0034 10.4995 15.0036C10.3021 15.0039 10.1066 14.9651 9.92418 14.8896C9.74176 14.8141 9.57604 14.7034 9.43652 14.5637C9.22727 14.3537 9.08492 14.0864 9.02747 13.7956C8.97001 13.5048 9.00002 13.2034 9.1137 12.9297C9.22739 12.6559 9.41965 12.4219 9.66621 12.2573C9.91277 12.0927 10.2026 12.0049 10.499 12.0049C10.7955 12.0049 11.0853 12.0927 11.3318 12.2573C11.5784 12.4219 11.7707 12.6559 11.8843 12.9297C11.998 13.2034 12.028 13.5048 11.9706 13.7956Z" fill="#4DB581"/>
<path d="M17.7934 13.0296C18.0843 13.0871 18.3515 13.2294 18.5615 13.4387C18.7014 13.5781 18.8123 13.7436 18.888 13.926C18.9637 14.1083 19.0027 14.3038 19.0027 14.5012C19.0027 14.6986 18.9637 14.8941 18.888 15.0764C18.8123 15.2588 18.7014 15.4243 18.5615 15.5637C18.3515 15.773 18.0843 15.9153 17.7934 15.9728C17.5026 16.0302 17.2013 16.0002 16.9275 15.8865C16.6537 15.7728 16.4197 15.5806 16.2551 15.334C16.0905 15.0875 16.0027 14.7977 16.0027 14.5012C16.0027 14.2048 16.0905 13.9149 16.2551 13.6684C16.4197 13.4218 16.6537 13.2296 16.9275 13.1159C17.2013 13.0022 17.5026 12.9722 17.7934 13.0296Z" fill="#4DB581"/>
<mask id="path-3-outside-1_382_464" maskUnits="userSpaceOnUse" x="7.13397" y="2" width="17.5981" height="27.4808" fill="black">
<rect fill="white" x="7.13397" y="2" width="17.5981" height="27.4808"/>
<path d="M8 3L9.29904 2.25L24.299 28.2308L23 28.9808L8 3Z"/>
</mask>
<path d="M8 3L9.29904 2.25L24.299 28.2308L23 28.9808L8 3Z" fill="#212E53"/>
<path d="M23.6928 28.5808L8.69282 2.6L7.30718 3.4L22.3072 29.3808L23.6928 28.5808Z" fill="#FCFCFC" mask="url(#path-3-outside-1_382_464)"/>
</svg>
